# xmcd
#
# Track frame offsets:
#	150
#	13639
#	27560
#	38963
#	53751
#	68331
#	83555
#	94502
#	114592
#	131334
#
# Disc length: 1871 seconds
#
# Revision: 1
# Processed by: cddbd v1.5.2PL0 Copyright (c) Steve Scherf et al.
# Submitted via: audiograbber 1.83.01
#
DISCID=71074d0a
DTITLE=Eleven Hundred Springs - A Straighter Line
DYEAR=2001
DGENRE=Country
TTITLE0=Sad and Lonesome Song
TTITLE1=Long Haired Tattooed Hippie Freaks
TTITLE2=Thundered Will Do Just Fine
TTITLE3=See You in the Next Life
TTITLE4=The Ballad of Anna Stone
TTITLE5=A Straighter Line
TTITLE6=It Don't Mean a Thing to You
TTITLE7=Bird on a Wire
TTITLE8=Good Times, Hard Livin'
TTITLE9=Hey Jukebox
EXTD=
EXTT0=
EXTT1=
EXTT2=
EXTT3=
EXTT4=
EXTT5=
EXTT6=
EXTT7=
EXTT8=
EXTT9=
PLAYORDER=
